Coordinates
version=1
nRows=7
nColumns=40
inDegrees=yes

Units are S.I. units (second, meters, Newtons, ...)
Angles are in degrees.

endheader
time	pelvis_tilt	pelvis_list	pelvis_rotation	pelvis_tx	pelvis_ty	pelvis_tz	hip_flexion_r	hip_adduction_r	hip_rotation_r	knee_angle_r	knee_angle_r_beta	ankle_angle_r	subtalar_angle_r	mtp_angle_r	hip_flexion_l	hip_adduction_l	hip_rotation_l	knee_angle_l	knee_angle_l_beta	ankle_angle_l	subtalar_angle_l	mtp_angle_l	lumbar_extension	lumbar_bending	lumbar_rotation	arm_flex_r	arm_add_r	arm_rot_r	elbow_flex_r	pro_sup_r	wrist_flex_r	wrist_dev_r	arm_flex_l	arm_add_l	arm_rot_l	elbow_flex_l	pro_sup_l	wrist_flex_l	wrist_dev_l
     22.64750000	     -2.82657764	     -4.51928566	      2.95980809	      1.14306633	      0.91917293	      0.46288229	     22.75000762	     -0.08513415	    -16.52410238	     23.99467917	     23.99467917	      6.26268590	     -3.09482814	     -3.24983893	      3.85581792	    -11.80408949	     -7.08968944	     44.15325423	     44.15325423	      8.09340857	    -15.97256422	    -11.47483944	     -9.21527654	      6.37374409	      1.95625608	     -5.91421846	    -16.91838109	      9.70389505	     37.43139857	     45.38002717	      0.00000000	      0.00000000	     13.96874088	    -11.55696751	     -8.03329273	     93.22113317	     48.07940126	      0.00000000	      0.00000000
     22.65857143	     -2.79543308	     -4.44811370	      3.30720439	      1.14319264	      0.92080015	      0.46466418	     21.82547412	     -0.23696744	    -17.54996645	     23.70686533	     23.70686533	      7.11793241	     -1.48063407	     -3.08988151	      6.15706025	    -11.94399822	     -5.77643818	     48.43225108	     48.43225108	      8.32953746	    -16.65418584	     -5.29068812	     -9.15691545	      6.33419660	      1.78254525	     -3.36879007	    -16.83845963	     10.00493084	     34.99044631	     45.49302905	      0.00000000	      0.00000000	     12.67797744	    -11.25418827	     -7.94444065	     91.69092879	     48.06300809	      0.00000000	      0.00000000
     22.66964286	     -2.66975532	     -4.70350298	      3.59805542	      1.14334178	      0.92230434	      0.46689494	     20.74856621	      0.22581881	    -18.00693616	     23.15039171	     23.15039171	      7.61533885	     -1.08841709	     -3.10121805	      8.19542339	    -12.70731064	     -5.07821890	     52.06041715	     52.06041715	      7.02840984	    -17.39652441	     -4.41308586	     -9.29692695	      6.57534963	      2.16697826	     -1.83098492	    -17.23665692	      9.86216621	     35.13246091	     45.50925320	      0.00000000	      0.00000000	     11.44383288	    -10.69193636	     -7.50872821	     90.88138442	     48.01593241	      0.00000000	      0.00000000
     22.68071429	     -2.68232121	     -4.77051675	      3.92876520	      1.14316952	      0.92378053	      0.46865214	     19.80273738	      0.34248494	    -18.85542435	     22.60755107	     22.60755107	      8.16445210	      0.13519150	     -2.92241331	     10.68775083	    -12.94453181	     -4.00359971	     55.95053442	     55.95053442	      8.51322815	    -17.33467443	      3.26888415	     -9.13928049	      6.66968032	      2.30689283	      0.55855470	    -17.22842947	      9.76885250	     32.96211952	     45.63345162	      0.00000000	      0.00000000	     10.60022506	    -10.31959651	     -6.91182573	     88.18048804	     47.94574243	      0.00000000	      0.00000000
     22.69178571	     -2.67805619	     -4.98938145	      4.22781908	      1.14294246	      0.92509793	      0.47061170	     18.83128302	      0.76443301	    -19.34974940	     21.94819706	     21.94819706	      8.56269972	      0.70539071	     -2.72931574	     12.99968768	    -13.48955280	     -3.28945436	     59.13878287	     59.13878287	      8.84877249	    -17.52317493	      6.66448414	     -9.09899529	      6.89014400	      2.60143148	      2.50013140	    -17.42195764	      9.23099916	     32.30530791	     45.71822151	      0.00000000	      0.00000000	      9.53555359	     -9.93957276	     -6.29475339	     86.23095978	     47.88614265	      0.00000000	      0.00000000
     22.70285714	     -2.66046365	     -5.20282761	      4.52934302	      1.14261821	      0.92640170	      0.47245925	     17.81682224	      1.21278302	    -19.78925909	     21.19208462	     21.19208462	      8.85788179	      1.22140333	     -2.65976487	     15.16365058	    -14.04639556	     -2.75420772	     61.70444111	     61.70444111	      8.52059663	    -17.90962353	      7.35928569	     -9.07969230	      7.10958816	      2.73028318	      4.34260524	    -17.74870630	      8.93138498	     32.52522934	     45.74522374	      0.00000000	      0.00000000	      8.36682464	     -9.69448362	     -5.73421911	     84.22876494	     47.80984389	      0.00000000	      0.00000000
     22.71392857	     -2.65021771	     -5.36351815	      4.83750928	      1.14212915	      0.92768265	      0.47407643	     16.85769244	      1.58107279	    -20.23078191	     20.50723033	     20.50723033	      9.13188781	      1.77923847	     -2.58049344	     17.34694880	    -14.42560421	     -2.19229653	     63.93453881	     63.93453881	      8.92517465	    -18.11248258	      9.23065594	     -9.02920363	      7.28000761	      3.18956429	      6.22624282	    -18.04760681	      8.45824275	     31.92676434	     45.81864470	      0.00000000	      0.00000000	      7.87241937	     -9.23185978	     -4.85808458	     80.72819968	     47.69332388	      0.00000000	      0.00000000
